<svg width="20" height="20" viewBox="0 0 20 20" fill="none" xmlns="http://www.w3.org/2000/svg">
<g opacity="0.5">
<mask id="mask0_8_1089" style="mask-type:alpha" maskUnits="userSpaceOnUse" x="0" y="0" width="20" height="20">
<rect width="20" height="20" fill="#D9D9D9"/>
</mask>
<g mask="url(#mask0_8_1089)">
<path d="M9.99984 12.4583C9.88873 12.4583 9.78456 12.441 9.68734 12.4062C9.59012 12.3715 9.49984 12.3125 9.4165 12.2292L5.58317 8.39583C5.43039 8.24306 5.354 8.04861 5.354 7.8125C5.354 7.57639 5.43039 7.38194 5.58317 7.22917C5.73595 7.07639 5.93039 7 6.1665 7C6.40261 7 6.59706 7.07639 6.74984 7.22917L9.99984 10.4792L13.2498 7.22917C13.4026 7.07639 13.5971 7 13.8332 7C14.0693 7 14.2637 7.07639 14.4165 7.22917C14.5693 7.38194 14.6457 7.57639 14.6457 7.8125C14.6457 8.04861 14.5693 8.24306 14.4165 8.39583L10.5832 12.2292C10.4998 12.3125 10.4096 12.3715 10.3123 12.4062C10.2151 12.441 10.1109 12.4583 9.99984 12.4583Z" fill="white" fill-opacity="0.9"/>
</g>
</g>
</svg>
