<svg width="157" height="156" viewBox="0 0 157 156" fill="none" xmlns="http://www.w3.org/2000/svg">
<g filter="url(#filter0_d_8_833)">
<circle opacity="0.8" cx="78.5" cy="78" r="33.3462" fill="url(#paint0_angular_8_833)" stroke="#3152F4" stroke-width="1.30769"/>
<path fill-rule="evenodd" clip-rule="evenodd" d="M86.8927 61.75H86.8927L70.1067 61.75H70.1067H70.1067C68.5996 61.75 67.3842 61.75 66.4037 61.8388C65.3931 61.9304 64.5101 62.1243 63.708 62.5873C62.7579 63.1359 61.9689 63.9249 61.4204 64.875C60.9573 65.6771 60.7634 66.5601 60.6718 67.5707C60.583 68.5512 60.583 69.8859 60.583 71.393V71.393V71.393C60.583 72.9001 60.583 74.1155 60.6718 75.096C60.7634 76.1066 60.9573 76.9896 61.4204 77.7917C61.9689 78.7418 62.7579 79.5308 63.708 80.0793C64.5101 80.5424 65.3931 80.7362 66.4037 80.8278C67.3842 80.9167 68.5996 80.9167 70.1067 80.9167H70.1067L70.9566 80.9167H70.9566H70.9566C71.9725 80.917 72.6748 80.9172 73.3464 80.768C74.2426 80.5689 75.084 80.1748 75.8106 79.6138C76.3552 79.1933 76.8047 78.6537 77.4548 77.8731L77.4548 77.8731L77.4548 77.8731C77.7587 77.5085 78.03 77.184 78.1791 77.0295C78.2715 76.9081 78.5291 76.7382 78.8203 77.0295C78.9693 77.184 79.2407 77.5084 79.5445 77.873C80.1946 78.6537 80.6441 79.1933 81.1887 79.6138C81.9154 80.1748 82.7567 80.5689 83.6529 80.768C84.3246 80.9172 85.0269 80.917 86.0427 80.9167H86.0428H86.0428L86.8926 80.9167H86.8927C88.3997 80.9167 89.6152 80.9167 90.5957 80.8278C91.6063 80.7362 92.4893 80.5424 93.2913 80.0793C94.2415 79.5308 95.0304 78.7418 95.579 77.7917C96.0421 76.9896 96.2359 76.1066 96.3275 75.096C96.4164 74.1155 96.4164 72.9001 96.4163 71.393C96.4164 69.886 96.4164 68.5511 96.3275 67.5707C96.2359 66.5601 96.0421 65.6771 95.579 64.875C95.0304 63.9249 94.2415 63.1359 93.2913 62.5873C92.4893 62.1243 91.6063 61.9304 90.5957 61.8388C89.6152 61.75 88.3997 61.75 86.8927 61.75ZM66.833 66.3333C65.9125 66.3333 65.1663 67.0795 65.1663 68C65.1663 68.9205 65.9125 69.6667 66.833 69.6667H70.1663C71.0868 69.6667 71.833 68.9205 71.833 68C71.833 67.0795 71.0868 66.3333 70.1663 66.3333H66.833Z" fill="#00C7BE"/>
<path d="M61.2087 81.0388C62.062 80.6936 63.0336 81.1056 63.3787 81.9589C63.57 82.4318 64.0322 83.0489 64.8856 83.7265C65.724 84.3923 66.8567 85.0495 68.2434 85.6296C69.7971 86.2796 71.6266 86.8147 73.6384 87.1596V86.0362C73.6055 85.5737 73.7646 85.1 74.1164 84.7446C74.764 84.0905 75.8192 84.0852 76.4734 84.7327L79.8405 88.0661C80.1567 88.3791 80.3346 88.8056 80.3346 89.2505C80.3346 89.6955 80.1567 90.1219 79.8405 90.435L76.4734 93.7683C75.8192 94.4159 74.764 94.4106 74.1164 93.7564C73.8249 93.4619 73.6657 93.0862 73.6384 92.7029V90.5364C71.1682 90.1579 68.8991 89.5172 66.957 88.7047C65.3556 88.0348 63.9421 87.2337 62.8128 86.337C61.6984 85.4521 60.7714 84.4025 60.2885 83.2088C59.9434 82.3554 60.3554 81.3839 61.2087 81.0388Z" fill="#00C7BE"/>
<path d="M95.7993 81.0418C96.651 81.3911 97.0582 82.3646 96.709 83.2162C95.8958 85.1991 94.1146 86.7878 91.9535 87.9697C89.7636 89.1673 87.0146 90.0433 83.9747 90.5159C83.0652 90.6573 82.2132 90.0346 82.0718 89.1251C81.9304 88.2155 82.5531 87.3635 83.4627 87.2221C86.2084 86.7953 88.5721 86.0197 90.3541 85.0451C92.165 84.0548 93.2152 82.9506 93.6249 81.9515C93.9742 81.0998 94.9477 80.6926 95.7993 81.0418Z" fill="#00C7BE"/>
</g>
<defs>
<filter id="filter0_d_8_833" x="0.5" y="0" width="156" height="156" filterUnits="userSpaceOnUse" color-interpolation-filters="sRGB">
<feFlood flood-opacity="0" result="BackgroundImageFix"/>
<feColorMatrix in="SourceAlpha" type="matrix" values="0 0 0 0 0 0 0 0 0 0 0 0 0 0 0 0 0 0 127 0" result="hardAlpha"/>
<feOffset/>
<feGaussianBlur stdDeviation="22"/>
<feComposite in2="hardAlpha" operator="out"/>
<feColorMatrix type="matrix" values="0 0 0 0 1 0 0 0 0 1 0 0 0 0 1 0 0 0 0.15 0"/>
<feBlend mode="normal" in2="BackgroundImageFix" result="effect1_dropShadow_8_833"/>
<feBlend mode="normal" in="SourceGraphic" in2="effect1_dropShadow_8_833" result="shape"/>
</filter>
<radialGradient id="paint0_angular_8_833" cx="0" cy="0" r="1" gradientUnits="userSpaceOnUse" gradientTransform="translate(78.5 78) rotate(144.866) scale(33.0151)">
<stop stop-color="#040F87"/>
<stop offset="1" stop-color="#0026FF"/>
</radialGradient>
</defs>
</svg>
