<svg width="157" height="156" viewBox="0 0 157 156" fill="none" xmlns="http://www.w3.org/2000/svg">
<g filter="url(#filter0_d_8_814)">
<circle opacity="0.8" cx="78.5" cy="78" r="33.3462" fill="url(#paint0_angular_8_814)" stroke="#3152F4" stroke-width="1.30769"/>
<path fill-rule="evenodd" clip-rule="evenodd" d="M78.5 66.6667C77.3221 66.6667 76.249 67.1307 74.9488 67.6927L73.4914 68.3209C72.2219 68.8679 71.1119 69.346 70.3316 69.8154C69.6039 70.2531 68.5 71.0642 68.5 72.5001V82.5001C68.5 83.936 69.6039 84.7471 70.3316 85.1848C71.1119 85.6541 72.2219 86.1323 73.4914 86.6792L74.9488 87.3074C76.249 87.8695 77.3221 88.3334 78.5 88.3334C79.6779 88.3334 80.751 87.8695 82.0512 87.3074L83.5086 86.6792C84.7781 86.1323 85.8881 85.6541 86.6684 85.1848C87.3961 84.7471 88.5 83.936 88.5 82.5001V72.5001C88.5 71.0642 87.3961 70.2531 86.6684 69.8154C85.8881 69.346 84.7781 68.8679 83.5086 68.3209L82.0512 67.6927C80.751 67.1307 79.6779 66.6667 78.5 66.6667ZM76.8333 78.0514V84.4856L71.8333 82.1881V75.9514L76.8333 78.0514ZM80.1667 84.4856V78.0514L85.1667 75.9514V82.1881L80.1667 84.4856Z" fill="#00C7BE"/>
<path fill-rule="evenodd" clip-rule="evenodd" d="M75.4067 61.6286C75.4277 62.5488 74.6988 63.3119 73.7785 63.3329C69.2887 63.4356 67.3755 63.898 66.1367 65.1367C64.898 66.3755 64.4356 68.2887 64.3329 72.7785C64.3119 73.6988 63.5488 74.4277 62.6286 74.4067C61.7083 74.3856 60.9794 73.6226 61.0004 72.7024C61.1003 68.3354 61.4839 65.0755 63.7797 62.7797C66.0755 60.4839 69.3354 60.1003 73.7024 60.0004C74.6226 59.9794 75.3856 60.7083 75.4067 61.6286ZM81.5933 61.6286C81.6144 60.7083 82.3774 59.9794 83.2977 60.0004C87.6646 60.1003 90.9245 60.4839 93.2203 62.7797C95.5161 65.0755 95.8997 68.3354 95.9996 72.7024C96.0206 73.6226 95.2917 74.3856 94.3714 74.4067C93.4512 74.4277 92.6882 73.6988 92.6671 72.7785C92.5645 68.2887 92.102 66.3755 90.8633 65.1367C89.6245 63.898 87.7113 63.4356 83.2215 63.3329C82.3012 63.3119 81.5723 62.5488 81.5933 61.6286ZM94.3714 80.5933C95.2917 80.6144 96.0206 81.3774 95.9996 82.2976C95.8997 86.6646 95.5161 89.9245 93.2203 92.2203C90.9245 94.5161 87.6646 94.8997 83.2977 94.9996C82.3774 95.0206 81.6144 94.2917 81.5933 93.3714C81.5723 92.4512 82.3012 91.6882 83.2215 91.6671C87.7113 91.5645 89.6245 91.102 90.8633 89.8633C92.102 88.6245 92.5645 86.7113 92.6671 82.2215C92.6882 81.3012 93.4512 80.5723 94.3714 80.5933ZM62.6286 80.5933C63.5488 80.5723 64.3119 81.3012 64.3329 82.2215C64.4356 86.7113 64.898 88.6245 66.1367 89.8633C67.3755 91.102 69.2887 91.5645 73.7785 91.6671C74.6988 91.6882 75.4277 92.4512 75.4067 93.3714C75.3856 94.2917 74.6226 95.0206 73.7024 94.9996C69.3354 94.8997 66.0755 94.5161 63.7797 92.2203C61.4839 89.9245 61.1003 86.6646 61.0004 82.2977C60.9794 81.3774 61.7083 80.6144 62.6286 80.5933Z" fill="#00C7BE"/>
</g>
<defs>
<filter id="filter0_d_8_814" x="0.5" y="0" width="156" height="156" filterUnits="userSpaceOnUse" color-interpolation-filters="sRGB">
<feFlood flood-opacity="0" result="BackgroundImageFix"/>
<feColorMatrix in="SourceAlpha" type="matrix" values="0 0 0 0 0 0 0 0 0 0 0 0 0 0 0 0 0 0 127 0" result="hardAlpha"/>
<feOffset/>
<feGaussianBlur stdDeviation="22"/>
<feComposite in2="hardAlpha" operator="out"/>
<feColorMatrix type="matrix" values="0 0 0 0 1 0 0 0 0 1 0 0 0 0 1 0 0 0 0.15 0"/>
<feBlend mode="normal" in2="BackgroundImageFix" result="effect1_dropShadow_8_814"/>
<feBlend mode="normal" in="SourceGraphic" in2="effect1_dropShadow_8_814" result="shape"/>
</filter>
<radialGradient id="paint0_angular_8_814" cx="0" cy="0" r="1" gradientUnits="userSpaceOnUse" gradientTransform="translate(78.5 78) rotate(144.866) scale(33.0151)">
<stop stop-color="#040F87"/>
<stop offset="1" stop-color="#0026FF"/>
</radialGradient>
</defs>
</svg>
