<svg width="157" height="156" viewBox="0 0 157 156" fill="none" xmlns="http://www.w3.org/2000/svg">
<g filter="url(#filter0_d_8_826)">
<circle opacity="0.8" cx="78.5" cy="78" r="33.3462" fill="url(#paint0_angular_8_826)" stroke="#3152F4" stroke-width="1.30769"/>
<path fill-rule="evenodd" clip-rule="evenodd" d="M78.3787 60.4167H78.621H78.621C82.1612 60.4167 84.9836 60.4167 87.1965 60.7142C89.4814 61.0214 91.3587 61.6724 92.8431 63.1568C94.3275 64.6413 94.9785 66.5185 95.2857 68.8034C95.5832 71.0163 95.5832 73.8387 95.5832 77.379V77.6212C95.5832 81.1615 95.5832 83.9839 95.2857 86.1968C94.9785 88.4817 94.3275 90.3589 92.8431 91.8433C91.3587 93.3278 89.4814 93.9788 87.1965 94.286C84.9836 94.5835 82.1612 94.5835 78.6209 94.5834H78.3787C74.8385 94.5835 72.0161 94.5835 69.8031 94.286C67.5182 93.9788 65.641 93.3278 64.1566 91.8433C62.6721 90.3589 62.0212 88.4817 61.714 86.1968C61.4164 83.9839 61.4165 81.1615 61.4165 77.6212V77.6212V77.3789V77.3789C61.4165 73.8386 61.4164 71.0163 61.714 68.8034C62.0212 66.5185 62.6721 64.6413 64.1566 63.1568C65.641 61.6724 67.5182 61.0214 69.8031 60.7142C72.016 60.4167 74.8384 60.4167 78.3787 60.4167H78.3787ZM80.3793 72.1118L80.3793 72.1118L80.5511 72.2181C81.6719 72.9114 82.6374 73.5086 83.3434 74.0701C84.0762 74.653 84.7854 75.3901 85.0417 76.4506C85.2081 77.1391 85.2081 77.8611 85.0417 78.5496C84.7854 79.61 84.0762 80.3472 83.3434 80.93C82.6374 81.4916 81.6719 82.0888 80.5511 82.782L80.3793 82.8883C79.3006 83.5558 78.3637 84.1354 77.5786 84.499C76.7794 84.8691 75.7784 85.1936 74.7083 84.8634C74.0268 84.6532 73.4243 84.2594 72.9503 83.7387C72.2378 82.9559 72.0223 81.9531 71.9275 81.0409C71.8331 80.1327 71.8331 78.9689 71.8332 77.5913V77.4088C71.8331 76.0312 71.8331 74.8675 71.9275 73.9592C72.0223 73.0471 72.2378 72.0443 72.9503 71.2614C73.4243 70.7408 74.0268 70.347 74.7083 70.1367C75.7784 69.8065 76.7794 70.131 77.5786 70.5012C78.3637 70.8647 79.3005 71.4444 80.3793 72.1118Z" fill="#00C7BE"/>
</g>
<defs>
<filter id="filter0_d_8_826" x="0.5" y="0" width="156" height="156" filterUnits="userSpaceOnUse" color-interpolation-filters="sRGB">
<feFlood flood-opacity="0" result="BackgroundImageFix"/>
<feColorMatrix in="SourceAlpha" type="matrix" values="0 0 0 0 0 0 0 0 0 0 0 0 0 0 0 0 0 0 127 0" result="hardAlpha"/>
<feOffset/>
<feGaussianBlur stdDeviation="22"/>
<feComposite in2="hardAlpha" operator="out"/>
<feColorMatrix type="matrix" values="0 0 0 0 1 0 0 0 0 1 0 0 0 0 1 0 0 0 0.15 0"/>
<feBlend mode="normal" in2="BackgroundImageFix" result="effect1_dropShadow_8_826"/>
<feBlend mode="normal" in="SourceGraphic" in2="effect1_dropShadow_8_826" result="shape"/>
</filter>
<radialGradient id="paint0_angular_8_826" cx="0" cy="0" r="1" gradientUnits="userSpaceOnUse" gradientTransform="translate(78.5 78) rotate(144.866) scale(33.0151)">
<stop stop-color="#040F87"/>
<stop offset="1" stop-color="#0026FF"/>
</radialGradient>
</defs>
</svg>
