<svg xmlns="http://www.w3.org/2000/svg" width="22" height="22" viewBox="0 0 22 22" fill="none">
  <path fill-rule="evenodd" clip-rule="evenodd" d="M21.5121 0.487911C22.163 1.13879 22.163 2.19406 21.5121 2.84493L2.84542 21.5116C2.19455 22.1625 1.13927 22.1625 0.4884 21.5116C-0.162474 20.8607 -0.162474 19.8055 0.4884 19.1546L19.1551 0.487911C19.8059 -0.162963 20.8612 -0.162963 21.5121 0.487911Z" fill="white"/>
  <path fill-rule="evenodd" clip-rule="evenodd" d="M0.4884 0.487911C1.13927 -0.162963 2.19455 -0.162963 2.84542 0.487911L21.5121 19.1546C22.163 19.8055 22.163 20.8607 21.5121 21.5116C20.8612 22.1625 19.8059 22.1625 19.1551 21.5116L0.4884 2.84493C-0.162474 2.19406 -0.162474 1.13879 0.4884 0.487911Z" fill="white"/>
</svg>