<svg xmlns="http://www.w3.org/2000/svg" width="18" height="14" viewBox="0 0 18 14" fill="none">
  <path d="M13.495 5.03751C13.4869 4.35799 13.4636 3.77064 13.3964 3.27083C13.393 3.24525 13.3894 3.21978 13.3857 3.19443C13.7294 2.92422 14.0403 2.69652 14.3208 2.52707C14.846 2.20976 15.5117 1.94405 16.1947 2.28264C16.8671 2.61597 17.0755 3.29915 17.1622 3.91211C17.2493 4.52834 17.2493 5.35758 17.2493 6.35366V7.64834C17.2493 8.64442 17.2493 9.47366 17.1622 10.0899C17.0755 10.7028 16.8671 11.386 16.1947 11.7194C15.5117 12.0579 14.846 11.7922 14.3208 11.4749C14.0403 11.3055 13.7294 11.0778 13.3858 10.8076C13.3895 10.7823 13.393 10.7569 13.3964 10.7314C13.4637 10.2315 13.4869 9.64409 13.495 8.96449C14.2133 9.55637 14.7093 9.95717 15.0964 10.191C15.2999 10.314 15.4227 10.3584 15.4898 10.3717C15.5046 10.3746 15.5147 10.3756 15.5207 10.3759L15.5245 10.376L15.527 10.376L15.5285 10.3754C15.5318 10.3738 15.5331 10.3724 15.5331 10.3724C15.5352 10.3702 15.5464 10.3581 15.5624 10.3268C15.5983 10.2567 15.6425 10.1231 15.6769 9.87979C15.7474 9.38156 15.7493 8.66013 15.7493 7.58744V6.41456C15.7493 5.34186 15.7474 4.62044 15.6769 4.1222C15.6425 3.87891 15.5983 3.74533 15.5624 3.67518C15.5464 3.64392 15.5355 3.63212 15.5334 3.6299C15.5334 3.6299 15.5318 3.6282 15.5285 3.62658L15.5274 3.62604C15.5274 3.62604 15.5237 3.62597 15.5207 3.62613C15.5147 3.62643 15.5046 3.62741 15.4898 3.63034C15.4227 3.64362 15.2999 3.68801 15.0964 3.81097C14.7093 4.04483 14.2133 4.44563 13.495 5.03751Z" fill="white"/>
  <path fill-rule="evenodd" clip-rule="evenodd" d="M6.69598 0.250001H7.55403C8.74551 0.249978 9.71539 0.24996 10.4803 0.352796C11.2783 0.460083 11.9645 0.691518 12.5115 1.23852C13.0585 1.78552 13.2899 2.47174 13.3972 3.26973C13.5 4.03462 13.5 5.0045 13.5 6.196V7.80401C13.5 8.99551 13.5 9.96539 13.3972 10.7303C13.2899 11.5283 13.0585 12.2145 12.5115 12.7615C11.9645 13.3085 11.2783 13.5399 10.4803 13.6472C9.71539 13.75 8.74551 13.75 7.55401 13.75H6.696C5.5045 13.75 4.53462 13.75 3.76973 13.6472C2.97174 13.5399 2.28552 13.3085 1.73852 12.7615C1.19152 12.2145 0.960083 11.5283 0.852796 10.7303C0.74996 9.96539 0.749978 8.99551 0.750001 7.80403V6.19596C0.749978 5.00448 0.74996 4.03461 0.852796 3.26973C0.960083 2.47174 1.19152 1.78552 1.73852 1.23852C2.28552 0.691518 2.97174 0.460083 3.76973 0.352796C4.53461 0.24996 5.50449 0.249978 6.69598 0.250001ZM8.625 6.25C9.24632 6.25 9.75 5.74632 9.75 5.125C9.75 4.50368 9.24632 4 8.625 4C8.00368 4 7.5 4.50368 7.5 5.125C7.5 5.74632 8.00368 6.25 8.625 6.25Z" fill="white"/>
</svg>