<svg width="13vw" height="156" viewBox="0 0 157 156" fill="none" xmlns="http://www.w3.org/2000/svg">
<g filter="url(#filter0_d_8_820)">
<circle opacity="0.8" cx="78.5" cy="78" r="33.3462" fill="url(#paint0_angular_8_820)" stroke="#3152F4" strokeWidth="1.30769"/>
<path d="M77.0876 59.697C77.278 59.5889 77.5089 59.5883 77.9706 59.587L78.3137 59.5859C79.9496 59.581 81.5875 59.5761 83.2218 59.638C83.9466 59.6654 84.3089 59.6792 84.4445 59.9307C84.5802 60.1823 84.3899 60.4968 84.0094 61.1258L80.1324 67.5347C79.8948 67.9275 79.776 68.1239 79.5854 68.2313C79.3949 68.3387 79.1654 68.3387 78.7063 68.3387H72.9546C72.4326 68.3387 72.1716 68.3387 72.0758 68.1696C71.9801 68.0005 72.1144 67.7767 72.3829 67.3291L76.5418 60.3976C76.7788 60.0027 76.8973 59.8052 77.0876 59.697Z" fill="#00C7BE"/>
<path d="M72.818 59.79C72.7169 59.6198 72.4529 59.6296 71.925 59.6493C70.773 59.6921 69.7395 59.7651 68.8135 59.8896C66.5191 60.1981 64.6987 60.8431 63.2684 62.2734C61.8301 63.7117 61.2076 65.6379 60.916 67.6008C60.8658 67.9386 60.8407 68.1075 60.9404 68.2231C61.0402 68.3387 61.2152 68.3387 61.5652 68.3387H66.9959C67.4592 68.3387 67.6908 68.3387 67.8825 68.2296C68.0742 68.1205 68.1924 67.9213 68.429 67.5229L72.5115 60.6467C72.7832 60.1891 72.9191 59.9602 72.818 59.79Z" fill="#00C7BE"/>
<path d="M89.6187 60.6616C89.109 60.4519 88.8542 60.347 88.5627 60.4418C88.2713 60.5365 88.1095 60.7995 87.7857 61.3256L84.0952 67.3227C83.8185 67.7724 83.6801 67.9973 83.7755 68.168C83.8709 68.3387 84.1349 68.3387 84.663 68.3387H93.7685C94.1185 68.3387 94.2935 68.3387 94.3932 68.2231C94.493 68.1075 94.4679 67.9386 94.4177 67.6008C94.1261 65.6379 93.5035 63.7117 92.0653 62.2734C91.3507 61.5588 90.5386 61.0402 89.6187 60.6616Z" fill="#00C7BE"/>
<path d="M94.5307 71.8645C94.7255 72.0568 94.7292 72.3616 94.7366 72.9711C94.7502 74.0784 94.7502 75.2778 94.7502 76.5762V76.7673C94.7502 77.1804 94.7502 77.5835 94.7497 77.9768C94.749 78.661 94.7486 79.0031 94.5529 79.1529C94.3572 79.3028 93.9903 79.2043 93.2565 79.0071C91.5094 78.5377 89.8602 78.75 88.5005 79.3123C86.5949 78.5241 84.1203 78.4238 81.6044 79.924C78.914 81.5283 77.75 84.645 78.1682 87.6762C78.3726 89.1582 78.933 90.6096 79.8254 91.981C80.3673 92.8138 80.6383 93.2303 80.4966 93.4918C80.3549 93.7533 79.8904 93.7538 78.9612 93.7548C78.5712 93.7553 78.1716 93.7553 77.7621 93.7553H77.5715C73.9203 93.7553 71.0526 93.7553 68.8135 93.4543C66.5191 93.1458 64.6987 92.5007 63.2684 91.0704C61.838 89.6401 61.193 87.8196 60.8845 85.5252C60.5835 83.2862 60.5835 80.4184 60.5835 76.7672V76.5766C60.5835 75.2781 60.5835 74.0784 60.597 72.9711C60.6045 72.3616 60.6082 72.0568 60.803 71.8645C60.9977 71.6721 61.3052 71.6721 61.9203 71.6721H93.4133C94.0284 71.6721 94.3359 71.6721 94.5307 71.8645Z" fill="#00C7BE"/>
<path d="M88.5002 82.1489C89.7883 81.2329 91.8668 80.7301 94.1159 82.0712C95.7932 83.0714 96.6627 85.1116 96.356 87.3346C96.047 89.5743 94.5763 91.9782 91.6708 94.0687C90.7475 94.7348 89.8024 95.4167 88.5002 95.4167C87.1979 95.4167 86.2528 94.7348 85.3295 94.0687C82.4241 91.9782 80.9533 89.5743 80.6443 87.3346C80.3376 85.1116 81.2071 83.0714 82.8844 82.0712C85.1335 80.7301 87.212 81.2329 88.5002 82.1489Z" fill="#00C7BE"/>
</g>
<defs>
<filter id="filter0_d_8_820" x="0.5" y="0" width="156" height="156" filterUnits="userSpaceOnUse" color-interpolation-filters="sRGB">
<feFlood flood-opacity="0" result="BackgroundImageFix"/>
<feColorMatrix in="SourceAlpha" type="matrix" values="0 0 0 0 0 0 0 0 0 0 0 0 0 0 0 0 0 0 127 0" result="hardAlpha"/>
<feOffset/>
<feGaussianBlur stdDeviation="22"/>
<feComposite in2="hardAlpha" operator="out"/>
<feColorMatrix type="matrix" values="0 0 0 0 1 0 0 0 0 1 0 0 0 0 1 0 0 0 0.15 0"/>
<feBlend mode="normal" in2="BackgroundImageFix" result="effect1_dropShadow_8_820"/>
<feBlend mode="normal" in="SourceGraphic" in2="effect1_dropShadow_8_820" result="shape"/>
</filter>
<radialGradient id="paint0_angular_8_820" cx="0" cy="0" r="1" gradientUnits="userSpaceOnUse" gradientTransform="translate(78.5 78) rotate(144.866) scale(33.0151)">
<stop stop-color="#040F87"/>
<stop offset="1" stop-color="#0026FF"/>
</radialGradient>
</defs>
</svg>
