<svg xmlns="http://www.w3.org/2000/svg" width="36" height="26" viewBox="0 0 36 26" fill="none">
  <path fill-rule="evenodd" clip-rule="evenodd" d="M7.20043 4.18823C10.0432 1.96893 13.7157 0.083252 17.9999 0.083252C22.2842 0.083252 25.9567 1.96893 28.7994 4.18822C31.6447 6.40951 33.7478 9.03282 34.9242 10.6824L35.0129 10.8061C35.4349 11.3929 35.9166 12.0629 35.9166 12.9999C35.9166 13.9369 35.4349 14.6069 35.0129 15.1937L34.9242 15.3174C33.7478 16.967 31.6447 19.5903 28.7994 21.8116C25.9567 24.0309 22.2842 25.9166 17.9999 25.9166C13.7157 25.9166 10.0432 24.0309 7.20043 21.8116C4.35514 19.5903 2.25203 16.967 1.0756 15.3174L0.986906 15.1937L0.986901 15.1937C0.564975 14.6069 0.083252 13.9369 0.083252 12.9999C0.083252 12.0629 0.564978 11.3929 0.986905 10.8061L1.0756 10.6825C2.25202 9.03282 4.35513 6.40951 7.20043 4.18823ZM12.1667 13C12.1667 16.2217 14.7783 18.8333 18 18.8333C21.2217 18.8333 23.8333 16.2217 23.8333 13C23.8333 9.77834 21.2217 7.16667 18 7.16667C14.7783 7.16667 12.1667 9.77834 12.1667 13Z" fill="white"/>
</svg>