<svg xmlns="http://www.w3.org/2000/svg" width="18" height="16" viewBox="0 0 18 16" fill="none">
  <path fill-rule="evenodd" clip-rule="evenodd" d="M14.4432 0.727477C14.002 0.687488 13.455 0.687493 12.7768 0.6875L5.22316 0.6875H5.22315C4.54497 0.687493 3.99802 0.687488 3.5568 0.727477C3.10204 0.768693 2.70469 0.855916 2.34375 1.0643C1.9162 1.31115 1.56115 1.6662 1.3143 2.09375C1.10592 2.45469 1.01869 2.85204 0.977477 3.3068C0.937488 3.74802 0.937493 4.34866 0.9375 5.02684V5.02685C0.937493 5.70503 0.937488 6.25198 0.977477 6.6932C1.01869 7.14796 1.10592 7.54531 1.3143 7.90625C1.56115 8.33381 1.9162 8.68885 2.34375 8.9357C2.70469 9.14409 3.10204 9.23131 3.5568 9.27252C3.99802 9.31251 4.54498 9.31251 5.22317 9.3125L5.60561 9.31251H5.60562C6.06276 9.31264 6.37879 9.31272 6.68104 9.24558C7.08433 9.156 7.46293 8.97867 7.78993 8.7262C8.03501 8.53699 8.23726 8.29415 8.52982 7.94289C8.66655 7.77881 8.78865 7.63281 8.85572 7.56326C8.8973 7.50865 9.01323 7.43221 9.14428 7.56326C9.21135 7.63281 9.33344 7.7788 9.47017 7.94287C9.76273 8.29414 9.96499 8.53698 10.2101 8.7262C10.5371 8.97867 10.9157 9.156 11.319 9.24558C11.6212 9.31272 11.9372 9.31264 12.3944 9.31251H12.3944L12.7768 9.3125C13.455 9.31251 14.002 9.31251 14.4432 9.27252C14.898 9.23131 15.2953 9.14409 15.6562 8.9357C16.0838 8.68885 16.4388 8.33381 16.6857 7.90625C16.8941 7.54531 16.9813 7.14796 17.0225 6.6932C17.0625 6.25199 17.0625 5.70504 17.0625 5.02686C17.0625 4.34869 17.0625 3.74801 17.0225 3.3068C16.9813 2.85204 16.8941 2.45469 16.6857 2.09375C16.4388 1.6662 16.0838 1.31115 15.6562 1.0643C15.2953 0.855916 14.898 0.768693 14.4432 0.727477ZM3.75 2.75C3.33579 2.75 3 3.08579 3 3.5C3 3.91421 3.33579 4.25 3.75 4.25H5.25C5.66421 4.25 6 3.91421 6 3.5C6 3.08579 5.66421 2.75 5.25 2.75H3.75Z" fill="white"/>
  <path d="M1.21899 9.36741C1.60298 9.21211 2.04018 9.39749 2.19548 9.78149C2.28155 9.99429 2.48956 10.272 2.87359 10.5769C3.25089 10.8765 3.76059 11.1723 4.3846 11.4333C5.08378 11.7258 5.90702 11.9666 6.81235 12.1218V11.6162C6.79754 11.4081 6.86914 11.195 7.02745 11.0351C7.31886 10.7407 7.79373 10.7383 8.08809 11.0297L9.60331 12.5297C9.7456 12.6706 9.82566 12.8625 9.82566 13.0627C9.82566 13.2629 9.7456 13.4548 9.60331 13.5957L8.08809 15.0957C7.79373 15.3871 7.31886 15.3847 7.02745 15.0903C6.89627 14.9578 6.82462 14.7887 6.81235 14.6163V13.6413C5.70074 13.471 4.67969 13.1827 3.8057 12.8171C3.08511 12.5156 2.44901 12.1551 1.94081 11.7516C1.43935 11.3534 1.02218 10.8811 0.804914 10.3439C0.649606 9.95991 0.834994 9.52272 1.21899 9.36741Z" fill="white"/>
  <path d="M16.7848 9.36878C17.168 9.52595 17.3513 9.96403 17.1941 10.3473C16.8282 11.2396 16.0267 11.9545 15.0542 12.4863C14.0687 13.0252 12.8316 13.4195 11.4637 13.6321C11.0544 13.6958 10.671 13.4155 10.6074 13.0062C10.5438 12.5969 10.824 12.2136 11.2333 12.1499C12.4689 11.9578 13.5325 11.6088 14.3344 11.1703C15.1493 10.7246 15.6219 10.2277 15.8063 9.77813C15.9634 9.39489 16.4015 9.21162 16.7848 9.36878Z" fill="white"/>
</svg>