<svg xmlns="http://www.w3.org/2000/svg" width="56" height="56" viewBox="0 0 56 56" fill="none">
  <mask id="mask0_1_555" style="mask-type:alpha" maskUnits="userSpaceOnUse" x="0" y="0" width="56" height="56">
    <rect width="56" height="56" fill="#D9D9D9"/>
  </mask>
  <g mask="url(#mask0_1_555)">
    <path d="M18.6666 40.0749V15.9249C18.6666 15.2638 18.9 14.7096 19.3666 14.2624C19.8333 13.8152 20.3777 13.5916 21 13.5916C21.1944 13.5916 21.3986 13.6207 21.6125 13.6791C21.8263 13.7374 22.0305 13.8249 22.225 13.9416L41.2416 26.0166C41.5916 26.2499 41.8541 26.5416 42.0291 26.8916C42.2041 27.2416 42.2916 27.611 42.2916 27.9999C42.2916 28.3888 42.2041 28.7582 42.0291 29.1082C41.8541 29.4582 41.5916 29.7499 41.2416 29.9832L22.225 42.0582C22.0305 42.1749 21.8263 42.2624 21.6125 42.3207C21.3986 42.3791 21.1944 42.4082 21 42.4082C20.3777 42.4082 19.8333 42.1846 19.3666 41.7374C18.9 41.2902 18.6666 40.736 18.6666 40.0749Z" fill="white"/>
  </g>
</svg>