<svg xmlns="http://www.w3.org/2000/svg" width="16" height="16" viewBox="0 0 16 16" fill="none">
  <path d="M15.6852 6.75682C15.6839 6.54783 15.6833 6.44333 15.6175 6.37791C15.5516 6.3125 15.4467 6.3125 15.2368 6.3125H0.763216C0.553311 6.3125 0.448358 6.3125 0.382541 6.37791C0.316725 6.44333 0.316085 6.54783 0.314806 6.75682C0.312495 7.13433 0.312498 7.53404 0.3125 7.95711V8.04288C0.31249 9.68591 0.312483 10.9764 0.447946 11.984C0.586761 13.0165 0.877037 13.8357 1.52069 14.4793C2.16433 15.123 2.98352 15.4132 4.01602 15.5521C5.02358 15.6875 6.31408 15.6875 7.9571 15.6875H8.04288C9.6859 15.6875 10.9764 15.6875 11.984 15.5521C13.0165 15.4132 13.8357 15.123 14.4793 14.4793C15.123 13.8357 15.4132 13.0165 15.5521 11.984C15.6875 10.9764 15.6875 9.68592 15.6875 8.0429V7.95712C15.6875 7.53405 15.6875 7.13434 15.6852 6.75682Z" fill="white"/>
  <path fill-rule="evenodd" clip-rule="evenodd" d="M8.04194 0.3125H7.95618C6.31316 0.31249 5.02264 0.312483 4.01508 0.447946C2.98259 0.586761 2.16339 0.877037 1.51975 1.52069C0.876097 2.16433 0.585821 2.98352 0.447006 4.01602C0.417446 4.23588 0.394337 4.46922 0.376271 4.71675C0.360353 4.93485 0.352395 5.0439 0.419146 5.1157C0.485898 5.1875 0.597267 5.1875 0.820005 5.1875H15.1781C15.4009 5.1875 15.5122 5.1875 15.579 5.1157C15.6457 5.0439 15.6378 4.93485 15.6219 4.71677V4.71675C15.6038 4.46922 15.5807 4.23588 15.5511 4.01602C15.4123 2.98352 15.122 2.16433 14.4784 1.52069C13.8347 0.877037 13.0155 0.586761 11.983 0.447946C10.9755 0.312483 9.68497 0.31249 8.04194 0.3125ZM3.5 2.75C3.5 2.33579 3.83579 2 4.25 2H4.25674C4.67095 2 5.00674 2.33579 5.00674 2.75C5.00674 3.16421 4.67095 3.5 4.25674 3.5H4.25C3.83579 3.5 3.5 3.16421 3.5 2.75ZM7.25 2C6.83579 2 6.5 2.33579 6.5 2.75C6.5 3.16421 6.83579 3.5 7.25 3.5H7.25674C7.67095 3.5 8.00674 3.16421 8.00674 2.75C8.00674 2.33579 7.67095 2 7.25674 2H7.25Z" fill="white"/>
</svg>