<svg xmlns="http://www.w3.org/2000/svg" width="37" height="36" viewBox="0 0 37 36" fill="none">
  <path d="M14.3687 0.965834C15.3582 0.265702 16.5619 -0.0678877 18.0765 0.354606L22.0544 1.46424C22.0695 1.46843 22.0846 1.47263 22.0997 1.47682C22.5475 1.60104 23.002 1.7271 23.3931 1.9871C23.7785 2.24326 24.0711 2.60569 24.3592 2.96249C24.375 2.98203 24.3907 3.00154 24.4065 3.02103C28.7912 8.43005 31.692 12.682 34.1587 18.1018L34.202 18.197C35.1386 20.2545 35.9047 21.9375 36.2991 23.4057C36.7183 24.966 36.7488 26.384 36.1488 27.8877C35.5492 29.3904 34.5808 30.3596 33.2329 31.1105C31.9894 31.8032 30.3639 32.3383 28.4188 32.9787L28.309 33.0148C24.3672 34.3127 20.7916 34.5685 16.7819 33.2837C16.5921 33.2229 16.4972 33.1925 16.4109 33.2106C16.3246 33.2288 16.2478 33.2967 16.0943 33.4327C14.1028 35.1955 11.4228 36.0251 8.81722 36.0009C5.98566 35.9746 3.08593 34.9384 1.10482 32.7879C0.892203 32.5571 0.77417 32.2547 0.77417 31.9409L0.77417 19.6413C0.77417 19.3109 0.904989 18.994 1.13803 18.7597C3.24308 16.6439 6.30484 15.6321 9.28477 15.6002C10.7907 15.584 12.3237 15.8175 13.7511 16.316C14.1658 16.4608 14.3731 16.5332 14.4178 16.7056C14.4624 16.878 14.3021 17.0579 13.9815 17.4175C13.6928 17.7413 13.4197 18.0876 13.169 18.4435C12.3829 19.5594 11.7115 20.9187 11.4613 22.2599C11.3347 22.9386 11.7822 23.5913 12.4609 23.7179C13.1395 23.8445 13.7923 23.397 13.9189 22.7184C14.0848 21.829 14.5665 20.8008 15.2129 19.8832C15.6548 19.2558 16.1261 18.7473 16.548 18.3966C16.693 18.276 16.7655 18.2157 16.9615 18.1245C17.1574 18.0333 17.2758 18.0121 17.5126 17.9695C18.9325 17.7144 20.2823 17.7858 21.5333 18.1004C21.7743 18.1609 21.8948 18.1912 21.9608 18.1316C22.0269 18.0719 22.0092 17.9506 21.9738 17.708C21.8817 17.0764 21.8185 16.4394 21.7554 15.8028C21.7103 15.3483 21.6652 14.894 21.6097 14.4421C21.5871 14.2583 21.5461 13.9714 21.5146 13.7556C21.4864 13.5624 21.4187 13.3765 21.3047 13.2181C21.1157 12.9555 20.9181 12.6991 20.7207 12.4428C20.6745 12.3829 20.6283 12.323 20.5823 12.263C20.4619 12.1055 20.344 11.9477 20.2265 11.7904C19.8754 11.3205 19.5278 10.8552 19.1278 10.4168C19.0576 10.3397 18.9546 10.3021 18.851 10.3138C18.4724 10.3566 17.532 10.4656 17.0298 10.5485C16.0185 10.7155 14.5471 10.6448 13.2506 10.2415C12.0194 9.85858 10.4447 9.00226 10.138 7.24341C9.98635 6.37361 10.2252 5.64608 10.6395 4.99311C10.9954 4.43217 11.5357 3.84595 12.1121 3.22056C12.2644 3.05521 12.4142 2.8876 12.5633 2.7193C13.0785 2.13778 13.6938 1.4433 14.3687 0.965834Z" fill="white"/>
</svg>